<?xml version="1.0" encoding="UTF-8" standalone="no"?>
<!DOCTYPE svg PUBLIC "-//W3C//DTD SVG 1.1//EN" "http://www.w3.org/Graphics/SVG/1.1/DTD/svg11.dtd">
<svg width="100%" height="100%" viewBox="0 0 645 581" version="1.1" xmlns="http://www.w3.org/2000/svg" xmlns:xlink="http://www.w3.org/1999/xlink" xml:space="preserve" xmlns:serif="http://www.serif.com/" style="fill-rule:evenodd;clip-rule:evenodd;stroke-linejoin:round;stroke-miterlimit:2;">
    <g transform="matrix(1,0,0,1,-3856.6575,-3906.9206)">
        <g>
            <g transform="matrix(2,0,0,2,4058.9473,3955.8424)">
                <path d="M0,31.278C0.532,31.278 0.983,30.889 1.058,30.362C1.085,30.166 1.114,29.969 1.143,29.77C1.63,26.424 2.127,23.296 2.634,20.386C3.139,17.477 3.825,14.75 4.69,12.203C5.554,9.658 6.744,7.276 8.26,5.056C9.774,2.838 11.787,0.746 14.293,-1.218C17.819,-3.981 21.62,-6.09 25.698,-7.546C29.774,-9 34.28,-9.728 39.213,-9.728C44.31,-9.728 48.69,-9.036 52.355,-7.655C56.017,-6.272 59.039,-4.436 61.419,-2.145C63.797,0.146 65.572,2.783 66.741,5.765C67.218,6.984 67.587,8.233 67.879,9.502L54.326,11.399C52.32,11.68 50.401,10.693 49.305,8.99C48.745,8.119 48.079,7.353 47.303,6.693C45.035,4.766 41.681,3.802 37.241,3.802C34.856,3.802 32.684,4.183 30.723,4.947C28.761,5.71 27.074,6.711 25.661,7.947C24.72,8.749 23.913,9.638 23.236,10.62C22.557,11.603 21.937,12.895 21.376,14.494C20.813,16.095 20.294,18.113 19.815,20.549C19.336,22.988 18.827,26.06 18.287,29.77C17.746,33.479 17.357,36.572 17.12,39.043C16.883,41.517 16.811,43.554 16.908,45.154C17.002,46.755 17.245,48.046 17.638,49.027C18.029,50.009 18.577,50.901 19.284,51.701C20.337,52.938 21.735,53.92 23.479,54.646C25.223,55.375 27.286,55.738 29.672,55.738C32.302,55.738 34.702,55.356 36.869,54.592C39.035,53.828 40.918,52.756 42.518,51.373C44.127,49.918 45.366,48.337 46.231,46.627C47.098,44.918 47.678,43.045 47.975,41.008L48.405,38.062L32.248,38.062L35.242,28.912C35.927,26.82 37.878,25.405 40.079,25.405L67.208,25.405L68.235,16.479C68.531,13.91 70.706,11.971 73.292,11.971L131.778,11.971L130.739,20.993C130.444,23.562 128.269,25.501 125.683,25.501L107.28,25.501L104.2,52.256L135.803,52.256C137.457,52.256 138.839,50.999 138.995,49.352L143.552,1.144C143.73,-0.738 142.25,-2.364 140.36,-2.364L86.857,-2.364C81.698,-2.364 76.749,-4.414 73.101,-8.063L57.955,-23.208C57.154,-24.01 56.066,-24.46 54.933,-24.46L14.731,-24.46C1.557,-24.46 -9.456,-14.44 -10.696,-1.324L-13.447,27.77C-13.625,29.652 -12.145,31.278 -10.255,31.278L0,31.278Z" style="fill:white;fill-rule:nonzero;"/>
            </g>
            <g transform="matrix(2,0,0,2,4209.6071,3916.4706)">
                <path d="M0,9.393C3.057,12.45 7.204,14.168 11.528,14.168L65.935,14.168C67.589,14.168 68.971,12.91 69.127,11.264L70.379,-1.98C70.521,-3.479 69.342,-4.775 67.836,-4.775L-13.135,-4.775C-13.516,-4.775 -13.707,-4.314 -13.438,-4.045L0,9.393Z" style="fill:white;fill-rule:nonzero;"/>
            </g>
            <g transform="matrix(2,0,0,2,4266.6223,4102.1624)">
                <path d="M0,-17.75L-3.088,9.07C-3.866,15.836 -16.751,16.454 -20.223,16.497L-21.086,16.497L-13.701,-47.659L-36.582,-47.659L-38.222,-36.408C-39.038,-30.806 -40.352,-26.168 -42.161,-22.496C-43.972,-18.822 -46.605,-15.568 -50.058,-12.731C-54.072,-9.458 -58.251,-7.167 -62.592,-5.857C-66.936,-4.548 -71.45,-3.893 -76.137,-3.893C-80.99,-3.893 -85.262,-4.619 -88.954,-6.075C-92.649,-7.529 -95.856,-9.638 -98.577,-12.404C-100.511,-14.368 -101.913,-16.458 -102.781,-18.677C-103.651,-20.896 -104.146,-23.277 -104.268,-25.824C-104.39,-28.369 -104.282,-31.097 -103.939,-34.008C-103.805,-35.143 -103.66,-36.314 -103.504,-37.517C-103.421,-38.157 -103.918,-38.728 -104.563,-38.728L-114.996,-38.728C-116.65,-38.728 -118.033,-37.471 -118.188,-35.824L-121.982,4.307C-122.16,6.189 -120.68,7.815 -118.79,7.815L-66.928,7.815C-61.769,7.815 -56.82,9.865 -53.172,13.513L-38.028,28.656C-37.227,29.458 -36.139,29.909 -35.005,29.909L6.839,29.909C20.013,29.909 31.026,19.888 32.266,6.772L34.253,-14.242C34.431,-16.124 32.951,-17.75 31.061,-17.75L0,-17.75Z" style="fill:white;fill-rule:nonzero;"/>
            </g>
            <g transform="matrix(2,0,0,2,4155.8209,4152.4294)">
                <path d="M0,-9.39C-3.057,-12.447 -7.204,-14.165 -11.528,-14.165L-64.294,-14.165C-65.948,-14.165 -67.331,-12.907 -67.486,-11.26L-68.671,1.267C-68.848,3.149 -67.368,4.775 -65.479,4.775L13.133,4.775C13.514,4.775 13.705,4.315 13.435,4.045L0,-9.39Z" style="fill:white;fill-rule:nonzero;"/>
            </g>
            <g transform="matrix(2,0,0,2,3497.7495,3779.968)">
                <path d="M238.194,284.328L224.483,284.328L224.483,289.193L238.194,289.193L238.194,284.328ZM238.194,275.421L224.483,275.421L224.483,279.792L238.194,279.792L238.194,275.421ZM230.486,249.442L211.096,249.442L211.096,253.731L230.486,253.731L230.486,249.442ZM230.486,240.699L211.096,240.699L211.096,244.575L230.486,244.575L230.486,240.699ZM217.342,284.328L204.362,284.328L204.362,289.193L217.342,289.193L217.342,284.328ZM217.342,275.421L204.362,275.421L204.362,279.792L217.342,279.792L217.342,275.421ZM224.483,266.926L224.483,270.555L245.008,270.555L245.008,294.143L236.084,294.143C238.761,295.297 244.602,297.194 250.606,298.514L247.686,304.781C239.328,302.885 230.729,298.514 230.729,298.514L233.488,294.143L209.392,294.143L212.313,298.514C212.313,298.514 204.443,302.967 195.356,304.781L192.111,298.596C200.386,297.112 206.633,294.143 206.633,294.143L197.547,294.143L197.547,270.555L217.342,270.555L217.342,266.926L193.328,266.926L193.328,261.483L251.418,261.483L251.418,266.926L224.483,266.926ZM237.625,240.699L237.625,244.575L247.929,244.575L247.929,249.442L237.625,249.442L237.625,258.349L203.955,258.349L203.955,249.442L195.031,249.442L195.031,244.575L203.955,244.575L203.955,240.699L191.705,240.699L191.705,250.596C191.705,255.05 191.786,259.586 191.786,263.957C191.786,279.132 191.137,293.4 186.026,303.379L179.454,297.194C184.24,288.039 184.403,272.534 184.403,254.143L184.403,234.679L213.367,234.679L213.367,230.555L221.481,230.555L221.481,234.679L250.444,234.679L250.444,240.699L237.625,240.699Z" style="fill:white;fill-rule:nonzero;"/>
            </g>
            <g transform="matrix(2,0,0,2,4106.6893,4246.6856)">
                <path d="M0,68.619C-5.03,61.855 -11.277,55.588 -11.277,55.588L-5.192,50.557C-5.192,50.557 0.649,56.413 6.085,62.846L0,68.619ZM26.367,71.423C10.709,61.938 0,47.011 -4.787,34.144C-8.438,48 -20.364,63.011 -36.833,71.423L-41.944,63.67C-19.553,53.443 -11.927,35.794 -10.466,23.671L-40.079,23.671L-40.079,16.083L-9.735,16.083L-9.735,-2.804L-1.298,-2.804L-1.298,16.083L29.126,16.083L29.126,23.671L-0.487,23.671C-0.487,23.671 3.488,47.67 31.073,63.753L26.367,71.423Z" style="fill:white;fill-rule:nonzero;"/>
            </g>
            <g transform="matrix(2,0,0,2,3497.7495,3774.526)">
                <path d="M407.822,242.678L395.734,242.678L395.734,248.615L407.822,248.615L407.822,242.678ZM407.822,254.472L395.735,254.472C395.735,255.957 395.735,258.925 395.572,260.658L407.822,260.658L407.822,254.472ZM403.361,280.122L400.115,272.699C406.525,272.699 407.822,272.039 407.822,269.977L407.822,266.513L394.598,266.513C393.868,270.719 391.354,276.08 387.459,280.122L380.806,274.843C387.864,269.235 388.027,260.245 388.027,252.987L388.027,236.245L415.53,236.245L415.53,269.977C415.53,279.049 410.5,279.792 403.361,280.122M370.259,247.627L370.259,254.884C370.259,256.369 370.178,259.255 370.097,260.658L375.776,260.658L375.776,250.76L382.996,250.76L382.996,266.678L368.961,266.678C366.933,274.348 362.309,278.389 353.221,281.688L348.597,275.42C354.033,274.1 359.712,271.792 361.092,266.678L349.327,266.678L349.327,250.925L356.548,250.925L356.548,260.658L362.389,260.658C362.471,259.255 362.551,256.452 362.551,254.884L362.551,247.627L347.705,247.627L347.705,241.194L355.168,241.194C354.196,239.874 352.491,237.977 351.112,236.823L358.008,233.276C360.117,235.916 361.903,238.719 363.119,241.194L369.447,241.194C370.584,239.792 372.449,236.823 373.91,233.276L380.969,236.493C380.076,238.142 379.022,239.792 377.967,241.194L385.512,241.194L385.512,247.627L370.259,247.627ZM345.676,304.781L345.676,297.771L377.805,297.771L377.805,290.265L352.654,290.265L352.654,283.833L377.805,283.833L377.805,279.214L386.08,279.214L386.08,283.833L411.636,283.833L411.636,290.265L386.08,290.265L386.08,297.771L418.694,297.771L418.694,304.781L345.676,304.781Z" style="fill:white;fill-rule:nonzero;"/>
            </g>
            <g transform="matrix(2,0,0,2,4482.9453,4332.9532)">
                <path d="M0,-15.175L0,-22.02C-3.895,-18.391 -8.844,-15.505 -8.844,-15.505L-13.225,-20.37C-13.225,-20.37 -7.546,-22.598 -2.272,-27.793L0,-25.237L0,-36.37L-5.031,-36.37L-1.38,-33.732C-6.004,-28.947 -9.898,-26.474 -9.898,-26.474L-14.279,-30.927C-14.279,-30.927 -9.412,-33.567 -6.329,-36.37L-12.819,-36.37L-12.819,-42.969L6.652,-42.969L6.652,-15.175L0,-15.175ZM-29.451,17.155L-32.859,12.124C-12.819,9.155 -5.193,-0.412 -5.193,-0.412L-0.325,2.97C-0.325,2.97 -9.817,14.35 -29.451,17.155M-29.613,7.423L-32.939,2.557C-18.823,-0.164 -13.145,-6.103 -13.145,-6.103L-8.52,-2.392C-8.52,-2.392 -15.172,4.207 -29.613,7.423M-31.561,28.289L-34.318,21.031C-8.033,20.207 2.596,5.856 2.596,5.856L7.788,10.639C7.788,10.639 -3.084,26.309 -31.561,28.289M5.922,0.083C-7.059,-4.37 -13.631,-9.897 -13.631,-9.897C-13.631,-9.897 -21.014,-4.535 -34.4,-0.989L-37.971,-7.67C-26.855,-9.154 -18.336,-13.691 -16.957,-15.175L-22.068,-15.175L-22.068,-21.938C-26.449,-18.062 -32.291,-14.433 -32.291,-14.433L-36.915,-19.793C-36.915,-19.793 -29.857,-22.433 -24.584,-27.628L-22.068,-24.989L-22.068,-36.37L-26.936,-36.37L-23.609,-33.897C-28.072,-29.113 -32.939,-25.979 -32.939,-25.979L-36.915,-30.762C-33.751,-32.329 -30.344,-34.804 -28.641,-36.37L-35.536,-36.37L-35.536,-42.969L-15.578,-42.969L-15.578,-15.587L-11.359,-15.587C-11.359,-15.587 -4.057,-9.732 9.248,-6.763L5.922,0.083ZM-45.028,-36.288L-52.006,-36.288L-52.006,-24.164L-45.028,-24.164L-45.028,-36.288ZM-45.028,-17.567L-52.006,-17.567L-52.006,-12.865C-52.006,-12.865 -52.087,-8.989 -52.087,-4.453L-45.028,-4.453L-45.028,-17.567ZM-48.436,27.382L-51.682,19.629C-45.19,19.629 -45.028,18.062 -45.028,15.588L-45.028,2.144L-52.492,2.144C-53.061,10.804 -54.521,21.361 -57.766,28.371L-63.77,23.588C-59.145,13.196 -58.74,-5.196 -58.74,-11.051L-58.74,-43.546L-38.295,-43.546L-38.295,17.32C-38.295,22.763 -39.917,27.382 -48.436,27.382" style="fill:white;fill-rule:nonzero;"/>
            </g>
            <g transform="matrix(2,0,0,2,3891.3241,4443.7494)">
                <path d="M0,19.174C-1.812,21.118 -4.061,21.938 -6.577,21.938C-9.061,21.938 -11.207,21.016 -12.852,19.344C-15.201,16.956 -15.167,14.261 -15.167,9.586C-15.167,4.912 -15.201,2.217 -12.852,-0.172C-11.207,-1.844 -9.127,-2.764 -6.577,-2.764C-1.51,-2.764 1.442,0.613 2.113,4.776L-1.544,4.776C-2.148,2.114 -3.893,0.545 -6.577,0.545C-7.986,0.545 -9.262,1.125 -10.1,2.046C-11.274,3.343 -11.543,4.707 -11.543,9.586C-11.543,14.465 -11.274,15.864 -10.1,17.16C-9.262,18.082 -7.986,18.628 -6.577,18.628C-5,18.628 -3.625,18.014 -2.685,16.922C-1.812,15.899 -1.477,14.67 -1.477,13.101L-1.477,11.736L-6.577,11.736L-6.577,8.597L2.146,8.597L2.146,12.316C2.146,15.455 1.576,17.468 0,19.174" style="fill:white;fill-rule:nonzero;"/>
            </g>
            <g transform="matrix(2,0,0,2,3945.9453,4438.6286)">
                <path d="M0,24.293L-3.153,24.293L-8.019,7.268L-12.851,24.293L-16.004,24.293L-22.246,0L-18.42,0L-14.26,17.367L-9.461,0L-6.543,0L-1.744,17.367L2.416,0L6.242,0L0,24.293Z" style="fill:white;fill-rule:nonzero;"/>
            </g>
            <g transform="matrix(2,0,0,2,3980.7031,4476.229)">
                <path d="M0,-13.307L-3.724,-2.525L3.625,-2.525L0,-13.307ZM6.275,5.493L4.631,0.614L-4.797,0.614L-6.441,5.493L-10.301,5.493L-1.543,-18.8L1.377,-18.8L10.134,5.493L6.275,5.493Z" style="fill:white;fill-rule:nonzero;"/>
            </g>
            <g transform="matrix(2,0,0,2,4038.4139,4438.6286)">
                <path d="M0,24.293L-11.039,7.199L-11.039,24.293L-14.662,24.293L-14.662,0L-11.341,0L-0.302,17.06L-0.302,0L3.322,0L3.322,24.293L0,24.293Z" style="fill:white;fill-rule:nonzero;"/>
            </g>
            <g transform="matrix(2,0,0,2,4087.4667,4443.7494)">
                <path d="M0,19.174C-1.812,21.118 -4.06,21.938 -6.577,21.938C-9.06,21.938 -11.207,21.016 -12.851,19.344C-15.2,16.956 -15.167,14.261 -15.167,9.586C-15.167,4.912 -15.2,2.217 -12.851,-0.172C-11.207,-1.844 -9.126,-2.764 -6.577,-2.764C-1.51,-2.764 1.442,0.613 2.114,4.776L-1.544,4.776C-2.147,2.114 -3.892,0.545 -6.577,0.545C-7.985,0.545 -9.261,1.125 -10.1,2.046C-11.274,3.343 -11.542,4.707 -11.542,9.586C-11.542,14.465 -11.274,15.864 -10.1,17.16C-9.261,18.082 -7.985,18.628 -6.577,18.628C-4.999,18.628 -3.624,18.014 -2.685,16.922C-1.812,15.899 -1.477,14.67 -1.477,13.101L-1.477,11.736L-6.577,11.736L-6.577,8.597L2.147,8.597L2.147,12.316C2.147,15.455 1.577,17.468 0,19.174" style="fill:white;fill-rule:nonzero;"/>
            </g>
            <g transform="matrix(2,0,0,2,4137.3905,4480.5938)">
                <path d="M0,-17.673L0,3.31L-3.624,3.31L-3.624,-17.673L-10.2,-17.673L-10.2,-20.983L6.576,-20.983L6.576,-17.673L0,-17.673Z" style="fill:white;fill-rule:nonzero;"/>
            </g>
            <g transform="matrix(2,0,0,2,4171.0077,4476.229)">
                <path d="M0,-13.307L-3.724,-2.525L3.625,-2.525L0,-13.307ZM6.275,5.493L4.631,0.614L-4.797,0.614L-6.441,5.493L-10.301,5.493L-1.543,-18.8L1.377,-18.8L10.134,5.493L6.275,5.493Z" style="fill:white;fill-rule:nonzero;"/>
            </g>
            <g transform="matrix(2,0,0,2,3497.7495,4075.202)">
                <rect x="350.822" y="181.713" width="3.623" height="24.293" style="fill:white;"/>
            </g>
            <g transform="matrix(2,0,0,2,4255.6269,4480.5938)">
                <path d="M0,-17.673L-5.235,-17.673L-5.235,-9.586L0,-9.586C2.517,-9.586 4.228,-11.054 4.228,-13.612C4.228,-16.171 2.517,-17.673 0,-17.673M0.201,-6.242L-5.235,-6.242L-5.235,3.31L-8.858,3.31L-8.858,-20.983L0.201,-20.983C4.865,-20.983 7.852,-17.843 7.852,-13.612C7.852,-9.382 4.865,-6.242 0.201,-6.242" style="fill:white;fill-rule:nonzero;"/>
            </g>
            <g transform="matrix(2,0,0,2,4281.4609,4438.6286)">
                <path d="M0,24.293L0,0L3.623,0L3.623,20.983L15.133,20.983L15.133,24.293L0,24.293Z" style="fill:white;fill-rule:nonzero;"/>
            </g>
            <g transform="matrix(2,0,0,2,4336.2187,4476.229)">
                <path d="M0,-13.307L-3.725,-2.525L3.623,-2.525L0,-13.307ZM6.274,5.493L4.631,0.614L-4.799,0.614L-6.443,5.493L-10.301,5.493L-1.544,-18.8L1.375,-18.8L10.133,5.493L6.274,5.493Z" style="fill:white;fill-rule:nonzero;"/>
            </g>
            <g transform="matrix(2,0,0,2,4377.2851,4438.2208)">
                <path d="M0,24.702C-3.59,24.702 -6.174,23.848 -8.455,21.495L-6.039,19.072C-4.295,20.847 -2.382,21.392 0.067,21.392C3.188,21.392 5,20.027 5,17.673C5,16.615 4.697,15.728 4.061,15.148C3.457,14.568 2.853,14.33 1.443,14.125L-1.375,13.716C-3.321,13.442 -4.865,12.761 -5.905,11.77C-7.08,10.644 -7.65,9.109 -7.65,7.131C-7.65,2.9 -4.631,0 0.336,0C3.49,0 5.705,0.818 7.752,2.764L5.436,5.084C3.959,3.65 2.248,3.207 0.235,3.207C-2.584,3.207 -4.127,4.845 -4.127,6.994C-4.127,7.881 -3.858,8.666 -3.221,9.246C-2.617,9.792 -1.645,10.201 -0.537,10.372L2.182,10.781C4.396,11.122 5.637,11.669 6.645,12.59C7.953,13.75 8.59,15.489 8.59,17.571C8.59,22.04 5,24.702 0,24.702" style="fill:white;fill-rule:nonzero;"/>
            </g>
            <g transform="matrix(2,0,0,2,4421.7089,4480.5938)">
                <path d="M0,-17.673L0,3.31L-3.624,3.31L-3.624,-17.673L-10.2,-17.673L-10.2,-20.983L6.577,-20.983L6.577,-17.673L0,-17.673Z" style="fill:white;fill-rule:nonzero;"/>
            </g>
            <g transform="matrix(2,0,0,2,3497.7495,4075.202)">
                <rect x="473.354" y="181.713" width="3.623" height="24.293" style="fill:white;"/>
            </g>
            <g transform="matrix(2,0,0,2,4480.9609,4438.2208)">
                <path d="M0,24.702C-2.482,24.702 -4.631,23.78 -6.274,22.108C-8.623,19.721 -8.59,17.025 -8.59,12.35C-8.59,7.677 -8.623,4.981 -6.274,2.593C-4.631,0.921 -2.482,0 0,0C4.396,0 7.684,2.627 8.523,7.472L4.832,7.472C4.262,5.015 2.65,3.309 0,3.309C-1.409,3.309 -2.684,3.855 -3.523,4.776C-4.697,6.073 -4.966,7.472 -4.966,12.35C-4.966,17.229 -4.697,18.629 -3.523,19.925C-2.684,20.847 -1.409,21.392 0,21.392C2.65,21.392 4.295,19.686 4.865,17.229L8.523,17.229C7.717,22.074 4.328,24.702 0,24.702" style="fill:white;fill-rule:nonzero;"/>
            </g>
        </g>
    </g>
</svg>
