<?xml version="1.0" encoding="UTF-8" standalone="no"?>
<!DOCTYPE svg PUBLIC "-//W3C//DTD SVG 1.1//EN" "http://www.w3.org/Graphics/SVG/1.1/DTD/svg11.dtd">
<svg width="100%" height="100%" viewBox="0 0 624 480" version="1.1" xmlns="http://www.w3.org/2000/svg" xmlns:xlink="http://www.w3.org/1999/xlink" xml:space="preserve" xmlns:serif="http://www.serif.com/" style="fill-rule:evenodd;clip-rule:evenodd;stroke-linejoin:round;stroke-miterlimit:2;">
    <g transform="matrix(1,0,0,1,-5039.2575,1209.7452)">
        <g transform="matrix(2,0,0,2,4629.832582,-1527)">
            <g transform="matrix(1,0,0,1,242.7502,204.5764)">
                <path d="M0,58.758C0.999,58.758 1.846,58.026 1.987,57.038C2.039,56.67 2.092,56.299 2.147,55.925C3.063,49.64 3.996,43.763 4.948,38.297C5.896,32.833 7.186,27.709 8.81,22.924C10.434,18.143 12.668,13.669 15.517,9.498C18.361,5.332 22.142,1.403 26.849,-2.286C33.474,-7.478 40.615,-11.439 48.275,-14.175C55.932,-16.906 64.396,-18.273 73.663,-18.273C83.239,-18.273 91.466,-16.974 98.351,-14.38C105.231,-11.781 110.907,-8.332 115.378,-4.028C119.846,0.275 123.179,5.229 125.375,10.831C126.272,13.122 126.965,15.466 127.514,17.85L102.054,21.415C98.285,21.943 94.681,20.089 92.622,16.888C91.57,15.253 90.318,13.813 88.861,12.574C84.6,8.954 78.3,7.142 69.959,7.142C65.478,7.142 61.398,7.859 57.714,9.293C54.03,10.728 50.859,12.608 48.204,14.93C46.438,16.436 44.921,18.107 43.649,19.952C42.374,21.798 41.209,24.224 40.156,27.229C39.098,30.236 38.122,34.028 37.224,38.604C36.324,43.184 35.368,48.955 34.352,55.925C33.337,62.893 32.605,68.702 32.161,73.346C31.715,77.993 31.58,81.82 31.762,84.825C31.939,87.832 32.396,90.257 33.134,92.101C33.868,93.946 34.898,95.621 36.226,97.123C38.203,99.447 40.831,101.292 44.107,102.656C47.383,104.025 51.258,104.707 55.74,104.707C60.682,104.707 65.189,103.989 69.26,102.554C73.329,101.12 76.865,99.105 79.873,96.508C82.895,93.775 85.221,90.804 86.848,87.591C88.475,84.382 89.566,80.863 90.124,77.036L90.93,71.501L60.579,71.501L66.204,54.314C67.49,50.384 71.156,47.726 75.291,47.726L126.252,47.726L128.183,30.958C128.738,26.132 132.824,22.49 137.681,22.49L247.551,22.49L245.6,39.438C245.044,44.263 240.958,47.906 236.101,47.906L201.531,47.906L195.745,98.167L255.111,98.167C258.218,98.167 260.815,95.804 261.108,92.711L269.669,2.149C270.004,-1.385 267.223,-4.441 263.673,-4.441L163.166,-4.441C153.473,-4.441 144.177,-8.291 137.323,-15.145L108.872,-43.597C107.366,-45.103 105.323,-45.949 103.193,-45.949L27.673,-45.949C2.924,-45.949 -17.764,-27.125 -20.093,-2.486L-25.26,52.168C-25.594,55.703 -22.814,58.758 -19.264,58.758L0,58.758Z" style="fill:white;fill-rule:nonzero;"/>
            </g>
            <g transform="matrix(1,0,0,1,384.2607,167.5976)">
                <path d="M0,17.644C5.743,23.387 13.533,26.614 21.655,26.614L123.861,26.614C126.968,26.614 129.565,24.251 129.858,21.158L132.21,-3.721C132.476,-6.537 130.261,-8.97 127.433,-8.97L-24.675,-8.97C-25.391,-8.97 -25.749,-8.105 -25.243,-7.599L0,17.644Z" style="fill:white;fill-rule:nonzero;"/>
            </g>
            <g transform="matrix(1,0,0,1,437.8133,342.0105)">
                <path d="M0,-33.343L-5.8,17.04C-7.263,29.75 -31.468,30.91 -37.991,30.992L-39.611,30.992L-25.738,-89.529L-68.721,-89.529L-71.801,-68.392C-73.335,-57.869 -75.802,-49.157 -79.2,-42.259C-82.603,-35.357 -87.549,-29.243 -94.037,-23.915C-101.577,-17.765 -109.427,-13.462 -117.582,-11.001C-125.742,-8.542 -134.222,-7.312 -143.027,-7.312C-152.143,-7.312 -160.169,-8.676 -167.105,-11.411C-174.045,-14.142 -180.07,-18.105 -185.181,-23.3C-188.814,-26.989 -191.449,-30.916 -193.079,-35.085C-194.712,-39.252 -195.642,-43.725 -195.872,-48.51C-196.102,-53.291 -195.898,-58.416 -195.253,-63.884C-195.003,-66.017 -194.73,-68.216 -194.437,-70.477C-194.282,-71.679 -195.214,-72.752 -196.426,-72.752L-216.026,-72.752C-219.133,-72.752 -221.73,-70.389 -222.022,-67.296L-229.149,8.092C-229.484,11.626 -226.703,14.682 -223.153,14.682L-125.728,14.682C-116.035,14.682 -106.739,18.532 -99.885,25.386L-71.438,53.834C-69.932,55.34 -67.889,56.186 -65.759,56.186L12.847,56.186C37.596,56.186 58.284,37.361 60.613,12.723L64.346,-26.753C64.68,-30.288 61.9,-33.343 58.349,-33.343L0,-33.343Z" style="fill:white;fill-rule:nonzero;"/>
            </g>
            <g transform="matrix(1,0,0,1,333.7407,389.2264)">
                <path d="M0,-17.64C-5.743,-23.383 -13.533,-26.61 -21.655,-26.61L-120.779,-26.61C-123.886,-26.61 -126.483,-24.247 -126.776,-21.154L-129.001,2.38C-129.335,5.915 -126.555,8.97 -123.004,8.97L24.671,8.97C25.387,8.97 25.745,8.105 25.239,7.599L0,-17.64Z" style="fill:white;fill-rule:nonzero;"/>
            </g>
        </g>
    </g>
</svg>
