<svg width="1022" height="256" viewBox="0 0 1022 256" fill="none" xmlns="http://www.w3.org/2000/svg">
<g clip-path="url(#clip0_7_13)">
<path d="M40.4973 111.478C41.5613 111.478 42.4633 110.7 42.6133 109.646C42.6673 109.254 42.7253 108.86 42.7833 108.462C43.7573 101.77 44.7513 95.514 45.7653 89.694C46.7753 83.876 48.1473 78.4219 49.8773 73.3279C51.6053 68.2379 53.9853 63.474 57.0173 59.034C60.0453 54.598 64.0713 50.414 69.0833 46.488C76.1353 40.96 83.7373 36.742 91.8933 33.83C100.045 30.922 109.057 29.466 118.923 29.466C129.117 29.466 137.877 30.8499 145.207 33.6119C152.531 36.3779 158.575 40.05 163.335 44.632C168.091 49.214 171.641 54.4879 173.979 60.452C174.933 62.89 175.671 65.3879 176.255 67.9259L149.149 71.72C145.137 72.282 141.299 70.3079 139.107 66.9019C137.987 65.1599 136.655 63.628 135.103 62.308C130.567 58.454 123.859 56.526 114.979 56.526C110.209 56.526 105.865 57.288 101.943 58.816C98.0193 60.342 94.6453 62.3439 91.8193 64.8159C89.9373 66.4199 88.3233 68.1999 86.9693 70.1619C85.6113 72.1279 84.3713 74.712 83.2493 77.91C82.1233 81.112 81.0853 85.15 80.1273 90.02C79.1693 94.898 78.1513 101.042 77.0713 108.462C75.9893 115.88 75.2113 122.066 74.7373 127.008C74.2633 131.956 74.1193 136.03 74.3133 139.23C74.5013 142.432 74.9873 145.014 75.7733 146.976C76.5553 148.94 77.6513 150.724 79.0653 152.324C81.1713 154.798 83.9673 156.762 87.4553 158.214C90.9433 159.672 95.0693 160.398 99.8413 160.398C105.101 160.398 109.901 159.634 114.235 158.106C118.567 156.578 122.333 154.434 125.533 151.668C128.751 148.76 131.229 145.596 132.959 142.176C134.693 138.76 135.853 135.012 136.447 130.938L137.307 125.046H104.993L110.981 106.746C112.351 102.562 116.253 99.7319 120.655 99.7319H174.913L176.967 81.88C177.559 76.742 181.909 72.864 187.081 72.864H304.053L301.975 90.908C301.385 96.046 297.035 99.924 291.863 99.924H255.057L248.897 153.436H312.103C315.411 153.436 318.175 150.92 318.487 147.626L327.601 51.21C327.957 47.446 324.997 44.194 321.217 44.194H214.211C203.893 44.194 193.995 40.094 186.699 32.796L156.407 2.50595C154.805 0.901951 152.629 0.00195312 150.363 0.00195312H69.9593C43.6113 0.00195312 21.5853 20.042 19.1053 46.274L13.6033 104.462C13.2473 108.226 16.2073 111.478 19.9873 111.478H40.4973Z" fill="#1976BD"/>
<path d="M191.157 28.336C197.271 34.45 205.565 37.886 214.213 37.886H323.027C326.335 37.886 329.099 35.37 329.411 32.078L331.915 5.59C332.199 2.592 329.841 0 326.829 0H164.887C164.125 0 163.743 0.922 164.281 1.46L191.157 28.336Z" fill="#1976BD"/>
<path d="M248.172 159.742L241.998 213.382C240.44 226.914 214.67 228.15 207.726 228.236H206L220.77 99.9238H175.008L171.728 122.426C170.096 133.63 167.468 142.906 163.85 150.25C160.228 157.598 154.962 164.106 148.056 169.78C140.028 176.326 131.67 180.908 122.988 183.528C114.3 186.146 105.272 187.456 95.898 187.456C86.192 187.456 77.648 186.004 70.264 183.092C62.874 180.184 56.46 175.966 51.018 170.434C47.15 166.506 44.346 162.326 42.61 157.888C40.87 153.45 39.88 148.688 39.636 143.594C39.392 138.504 39.608 133.048 40.294 127.226C40.562 124.956 40.852 122.614 41.164 120.208C41.33 118.928 40.336 117.786 39.046 117.786H18.18C14.872 117.786 12.106 120.3 11.796 123.594L4.20802 203.856C3.85202 207.62 6.81202 210.872 10.592 210.872H114.316C124.634 210.872 134.532 214.972 141.828 222.268L172.116 252.554C173.718 254.158 175.894 255.06 178.162 255.06H261.85C288.198 255.06 310.224 235.018 312.704 208.786L316.678 166.758C317.034 162.994 314.074 159.742 310.294 159.742H248.172Z" fill="#1976BD"/>
<path d="M137.371 226.729C131.257 220.615 122.963 217.179 114.315 217.179H8.78275C5.47475 217.179 2.70875 219.695 2.39875 222.989L0.0287528 248.043C-0.325247 251.807 2.63476 255.059 6.41276 255.059H163.637C164.399 255.059 164.781 254.139 164.241 253.599L137.371 226.729Z" fill="#1976BD"/>
<path d="M494.686 113.703H467.264V123.433H494.686V113.703ZM494.686 95.8893H467.264V104.631H494.686V95.8893ZM479.27 43.9292H440.49V52.5072H479.27V43.9292ZM479.27 26.4452H440.49V34.1972H479.27V26.4452ZM452.984 113.703H427.022V123.433H452.984V113.703ZM452.984 95.8893H427.022V104.631H452.984V95.8893ZM467.264 78.8993V86.1573H508.316V133.333H490.466C495.822 135.641 507.504 139.433 519.512 142.075L513.67 154.609C496.958 150.817 479.758 142.075 479.758 142.075L485.274 133.333H437.084L442.924 142.075C442.924 142.075 427.184 150.981 409.012 154.609L402.52 142.239C419.072 139.269 431.566 133.333 431.566 133.333H413.392V86.1573H452.984V78.8993H404.956V68.0113H521.134V78.8993H467.264ZM493.55 26.4452V34.1972H514.158V43.9292H493.55V61.7452H426.212V43.9292H408.362V34.1972H426.212V26.4452H401.71V46.2392C401.71 55.1472 401.872 64.2192 401.872 72.9612C401.872 103.311 400.574 131.845 390.352 151.805L377.208 139.433C386.782 121.125 387.106 90.1152 387.106 53.3332V14.4052H445.034V6.15723H461.26V14.4052H519.188V26.4452H493.55Z" fill="#393A3B"/>
<path d="M627.24 149.002C617.18 135.474 604.686 122.94 604.686 122.94L616.856 112.878C616.856 112.878 628.538 124.59 639.408 137.456L627.24 149.002ZM679.974 154.61C648.658 135.64 627.24 105.786 617.666 80.0523C610.364 107.764 586.512 137.786 553.574 154.61L543.35 139.104C588.134 118.65 603.388 83.3522 606.308 59.1062H547.082V43.9303H607.768V6.15625H624.644V43.9303H685.492V59.1062H626.266C626.266 59.1062 634.216 107.104 689.386 139.27L679.974 154.61Z" fill="#393A3B"/>
<path d="M833.946 24.9612H809.768V36.8352H833.946V24.9612ZM833.946 48.5492H809.768C809.768 51.5172 809.768 57.4552 809.444 60.9212H833.946V48.5492ZM825.02 99.8472L818.53 85.0032C831.348 85.0032 833.946 83.6812 833.946 79.5592V72.6312H807.496C806.036 81.0432 801.006 91.7632 793.216 99.8472L779.912 89.2912C794.028 78.0752 794.352 60.0952 794.352 45.5792V12.0952H849.36V79.5592C849.36 97.7032 839.3 99.1872 825.02 99.8472ZM758.818 34.8572V49.3732C758.818 52.3432 758.656 58.1152 758.494 60.9212H769.852V41.1252H784.294V72.9612H756.222C752.166 88.3012 742.916 96.3832 724.742 102.981L715.494 90.4452C726.366 87.8052 737.724 83.1872 740.482 72.9612H716.954V41.4552H731.396V60.9212H743.078C743.24 58.1152 743.402 52.5092 743.402 49.3732V34.8572H713.71V21.9932H728.636C726.69 19.3512 723.282 15.5592 720.524 13.2512L734.316 6.15723C738.536 11.4352 742.104 17.0432 744.538 21.9932H757.196C759.466 19.1872 763.198 13.2512 766.12 6.15723L780.236 12.5912C778.452 15.8892 776.342 19.1872 774.232 21.9932H789.324V34.8572H758.818ZM709.652 149.167V135.147H773.908V120.135H723.606V107.269H773.908V98.0332H790.46V107.269H841.572V120.135H790.46V135.147H855.688V149.167H709.652Z" fill="#393A3B"/>
<path d="M1003.49 67.6819V53.9919C995.705 61.2499 985.809 67.0219 985.809 67.0219L977.045 57.2919C977.045 57.2919 988.405 52.8359 998.951 42.4459L1003.49 47.5579V25.2919H993.435L1000.74 30.5679C991.487 40.1379 983.699 45.0839 983.699 45.0839L974.937 36.1779C974.937 36.1779 984.673 30.8979 990.837 25.2919H977.857V12.0939H1016.8V67.6819H1003.49ZM944.593 132.342L937.779 122.28C977.857 116.342 993.111 97.2079 993.111 97.2079L1002.84 103.972C1002.84 103.972 983.861 126.732 944.593 132.342ZM944.269 112.878L937.617 103.146C965.849 97.7039 977.207 85.8259 977.207 85.8259L986.457 93.2479C986.457 93.2479 973.151 106.446 944.269 112.878ZM940.375 154.61L934.859 140.094C987.431 138.446 1008.69 109.744 1008.69 109.744L1019.07 119.31C1019.07 119.31 997.329 150.65 940.375 154.61ZM1015.34 98.1979C989.377 89.2919 976.235 78.2379 976.235 78.2379C976.235 78.2379 961.469 88.9619 934.695 96.0539L927.555 82.6919C949.787 79.7239 966.823 70.6499 969.581 67.6819H959.359V54.1559C950.597 61.9079 938.913 69.1659 938.913 69.1659L929.665 58.4459C929.665 58.4459 943.783 53.1659 954.329 42.7759L959.359 48.0539V25.2919H949.623L956.277 30.2379C947.353 39.8059 937.617 46.0739 937.617 46.0739L929.665 36.5079C935.995 33.3739 942.809 28.4239 946.215 25.2919H932.423V12.0939H972.341V66.8579H980.779C980.779 66.8579 995.381 78.5679 1021.99 84.5059L1015.34 98.1979ZM913.439 25.4559H899.483V49.7039H913.439V25.4559ZM913.439 62.8979H899.485V72.3019C899.485 72.3019 899.323 80.0539 899.323 89.1259H913.439V62.8979ZM906.623 152.796L900.133 137.29C913.115 137.29 913.439 134.156 913.439 129.208V102.32H898.511C897.375 119.64 894.455 140.754 887.963 154.774L875.957 145.208C885.205 124.424 886.017 87.6399 886.017 75.9299V10.9399H926.907V132.672C926.907 143.558 923.661 152.796 906.623 152.796Z" fill="#393A3B"/>
<path d="M411.874 247.176C408.25 251.064 403.754 252.704 398.72 252.704C393.754 252.704 389.46 250.86 386.172 247.516C381.474 242.74 381.54 237.35 381.54 228C381.54 218.652 381.474 213.262 386.172 208.484C389.46 205.14 393.622 203.3 398.72 203.3C408.854 203.3 414.76 210.054 416.102 218.38H408.788C407.58 213.056 404.09 209.918 398.72 209.918C395.902 209.918 393.352 211.078 391.674 212.92C389.326 215.514 388.79 218.242 388.79 228C388.79 237.758 389.326 240.556 391.674 243.148C393.352 244.992 395.902 246.084 398.72 246.084C401.874 246.084 404.626 244.856 406.506 242.672C408.25 240.626 408.92 238.168 408.92 235.03V232.3H398.72V226.022H416.168V233.46C416.168 239.738 415.028 243.764 411.874 247.176Z" fill="#393A3B"/>
<path d="M466.497 252.293H460.189L450.459 218.243L440.795 252.293H434.487L422.005 203.707H429.655L437.977 238.441L447.573 203.707H453.411L463.007 238.441L471.329 203.707H478.979L466.497 252.293Z" fill="#393A3B"/>
<path d="M501.254 214.694L493.806 236.258H508.502L501.254 214.694ZM513.804 252.294L510.516 242.536H491.658L488.37 252.294H480.652L498.168 203.708H504.006L521.52 252.294H513.804Z" fill="#393A3B"/>
<path d="M558.965 252.293L536.885 218.105V252.293H529.639V203.707H536.283L558.361 237.827V203.707H565.609V252.293H558.965Z" fill="#393A3B"/>
<path d="M608.017 247.176C604.393 251.064 599.897 252.704 594.863 252.704C589.897 252.704 585.603 250.86 582.315 247.516C577.617 242.74 577.683 237.35 577.683 228C577.683 218.652 577.617 213.262 582.315 208.484C585.603 205.14 589.765 203.3 594.863 203.3C604.997 203.3 610.903 210.054 612.245 218.38H604.931C603.723 213.056 600.233 209.918 594.863 209.918C592.045 209.918 589.495 211.078 587.817 212.92C585.469 215.514 584.933 218.242 584.933 228C584.933 237.758 585.469 240.556 587.817 243.148C589.495 244.992 592.045 246.084 594.863 246.084C598.017 246.084 600.769 244.856 602.649 242.672C604.393 240.626 605.063 238.168 605.063 235.03V232.3H594.863V226.022H612.311V233.46C612.311 239.738 611.171 243.764 608.017 247.176Z" fill="#393A3B"/>
<path d="M657.941 210.326V252.292H650.693V210.326H637.541V203.706H671.095V210.326H657.941Z" fill="#393A3B"/>
<path d="M691.559 214.694L684.111 236.258H698.807L691.559 214.694ZM704.109 252.294L700.821 242.536H681.963L678.675 252.294H670.957L688.473 203.708H694.311L711.825 252.294H704.109Z" fill="#393A3B"/>
<path d="M727.192 203.707H719.944V252.293H727.192V203.707Z" fill="#393A3B"/>
<path d="M776.177 210.326H765.707V226.5H776.177C781.209 226.5 784.633 223.564 784.633 218.448C784.633 213.33 781.209 210.326 776.177 210.326ZM776.579 233.188H765.707V252.292H758.461V203.706H776.579C785.907 203.706 791.881 209.986 791.881 218.448C791.881 226.908 785.907 233.188 776.579 233.188Z" fill="#393A3B"/>
<path d="M802.011 252.293V203.707H809.259V245.673H832.277V252.293H802.011Z" fill="#393A3B"/>
<path d="M856.768 214.694L849.32 236.258H864.016L856.768 214.694ZM869.318 252.294L866.03 242.536H847.172L843.884 252.294H836.166L853.682 203.708H859.52L877.034 252.294H869.318Z" fill="#393A3B"/>
<path d="M897.837 252.703C890.657 252.703 885.489 250.995 880.925 246.289L885.757 241.443C889.247 244.993 893.073 246.083 897.971 246.083C904.213 246.083 907.837 243.353 907.837 238.645C907.837 236.529 907.231 234.755 905.957 233.595C904.749 232.435 903.541 231.959 900.723 231.549L895.085 230.731C891.193 230.183 888.105 228.821 886.025 226.839C883.677 224.587 882.537 221.517 882.537 217.561C882.537 209.099 888.575 203.299 898.507 203.299C904.815 203.299 909.245 204.935 913.339 208.827L908.709 213.467C905.755 210.599 902.333 209.713 898.307 209.713C892.669 209.713 889.583 212.989 889.583 217.287C889.583 219.061 890.119 220.631 891.395 221.791C892.603 222.883 894.547 223.701 896.763 224.043L902.199 224.861C906.629 225.543 909.111 226.637 911.125 228.479C913.741 230.799 915.017 234.277 915.017 238.441C915.017 247.379 907.837 252.703 897.837 252.703Z" fill="#393A3B"/>
<path d="M942.259 210.326V252.292H935.011V210.326H921.859V203.706H955.413V210.326H942.259Z" fill="#393A3B"/>
<path d="M972.254 203.707H965.006V252.293H972.254V203.707Z" fill="#393A3B"/>
<path d="M1001.51 252.703C996.545 252.703 992.251 250.859 988.963 247.515C984.263 242.741 984.331 237.349 984.331 227.999C984.331 218.653 984.263 213.261 988.963 208.485C992.251 205.141 996.545 203.299 1001.51 203.299C1010.3 203.299 1016.88 208.553 1018.56 218.243H1011.18C1010.03 213.329 1006.81 209.917 1001.51 209.917C998.693 209.917 996.143 211.009 994.465 212.851C992.117 215.445 991.579 218.243 991.579 227.999C991.579 237.757 992.117 240.557 994.465 243.149C996.143 244.993 998.693 246.083 1001.51 246.083C1006.81 246.083 1010.1 242.671 1011.24 237.757H1018.56C1016.95 247.447 1010.17 252.703 1001.51 252.703Z" fill="#393A3B"/>
</g>
<defs>
<clipPath id="clip0_7_13">
<rect width="1022" height="256" fill="white"/>
</clipPath>
</defs>
</svg>
