<svg width="624" height="480" viewBox="0 0 624 480" fill="none" xmlns="http://www.w3.org/2000/svg">
<g clip-path="url(#clip0_6_2)">
<path d="M76.0755 209.414C78.0735 209.414 79.7675 207.95 80.0495 205.974C80.1535 205.238 80.2595 204.496 80.3695 203.748C82.2015 191.178 84.0675 179.424 85.9715 168.492C87.8675 157.564 90.4475 147.316 93.6955 137.746C96.9435 128.184 101.411 119.236 107.109 110.894C112.797 102.562 120.359 94.704 129.773 87.326C143.023 76.942 157.305 69.02 172.625 63.548C187.939 58.086 204.867 55.352 223.401 55.352C242.553 55.352 259.007 57.95 272.777 63.138C286.537 68.336 297.889 75.234 306.831 83.842C315.767 92.448 322.434 102.356 326.826 113.56C328.62 118.142 330.005 122.83 331.103 127.598L280.183 134.728C272.645 135.784 265.437 132.076 261.319 125.674C259.215 122.404 256.711 119.524 253.797 117.046C245.275 109.806 232.675 106.182 215.993 106.182C207.031 106.182 198.871 107.616 191.503 110.484C184.135 113.354 177.793 117.114 172.483 121.758C168.951 124.77 165.917 128.112 163.373 131.802C160.823 135.494 158.493 140.346 156.387 146.356C154.271 152.37 152.319 159.954 150.523 169.106C148.723 178.266 146.811 189.808 144.779 203.748C142.749 217.684 141.285 229.302 140.397 238.59C139.505 247.884 139.235 255.538 139.599 261.548C139.953 267.562 140.867 272.412 142.343 276.1C143.811 279.79 145.871 283.14 148.527 286.144C152.481 290.792 157.737 294.482 164.289 297.21C170.841 299.948 178.591 301.312 187.555 301.312C197.439 301.312 206.453 299.876 214.595 297.006C222.733 294.138 229.805 290.108 235.821 284.914C241.863 279.448 246.517 273.506 249.771 267.08C253.025 260.662 255.207 253.624 256.323 245.97L257.935 234.9H197.233L208.483 200.526C211.055 192.666 218.387 187.35 226.657 187.35H328.579L332.441 153.814C333.551 144.162 341.724 136.878 351.438 136.878H571.177L567.275 170.774C566.163 180.424 557.991 187.71 548.277 187.71H479.138L467.565 288.232H586.297C592.511 288.232 597.705 283.506 598.291 277.32L615.413 96.196C616.083 89.128 610.521 83.016 603.421 83.016H402.408C383.022 83.016 364.429 75.316 350.721 61.608L293.819 4.704C290.807 1.692 286.721 0 282.461 0H131.421C81.9235 0 40.5475 37.648 35.8895 86.926L25.5555 196.234C24.8875 203.304 30.4475 209.414 37.5475 209.414H76.0755Z" fill="#1976BD"/>
<path d="M359.096 53.2284C370.582 64.7144 386.162 71.1684 402.406 71.1684H606.818C613.032 71.1684 618.226 66.4424 618.812 60.2564L623.517 10.4984C624.049 4.8664 619.618 0.000396729 613.962 0.000396729H309.746C308.314 0.000396729 307.598 1.7304 308.61 2.7424L359.096 53.2284Z" fill="#1976BD"/>
<path d="M466.202 300.08L454.602 400.846C451.676 426.266 403.266 428.586 390.22 428.75H386.98L414.726 187.708H328.76L322.6 229.982C319.532 251.028 314.598 268.452 307.802 282.248C300.996 296.052 291.104 308.28 278.128 318.936C263.048 331.236 247.348 339.842 231.038 344.764C214.718 349.682 197.758 352.142 180.148 352.142C161.916 352.142 145.864 349.414 131.992 343.944C118.112 338.482 106.062 330.556 95.8397 320.166C88.5737 312.788 83.3037 304.934 80.0437 296.596C76.7777 288.262 74.9177 279.316 74.4577 269.746C73.9977 260.184 74.4057 249.934 75.6957 238.998C76.1957 234.732 76.7417 230.334 77.3277 225.812C77.6377 223.408 75.7737 221.262 73.3497 221.262H34.1497C27.9357 221.262 22.7417 225.988 22.1577 232.174L7.90368 382.95C7.23368 390.018 12.7957 396.13 19.8957 396.13H214.746C234.132 396.13 252.724 403.83 266.432 417.538L323.326 474.434C326.338 477.446 330.424 479.138 334.684 479.138H491.896C541.394 479.138 582.77 441.488 587.428 392.212L594.894 313.26C595.562 306.19 590.002 300.08 582.9 300.08H466.202Z" fill="#1976BD"/>
<path d="M258.056 425.918C246.57 414.432 230.99 407.978 214.746 407.978H16.4985C10.2845 407.978 5.09049 412.704 4.50449 418.89L0.0544814 465.958C-0.613519 473.028 4.9465 479.138 12.0485 479.138H307.398C308.83 479.138 309.546 477.408 308.534 476.396L258.056 425.918Z" fill="#1976BD"/>
</g>
<defs>
<clipPath id="clip0_6_2">
<rect width="624" height="480" fill="white"/>
</clipPath>
</defs>
</svg>
